<?xml version="1.0" standalone="no"?>
<!DOCTYPE svg PUBLIC "-//W3C//DTD SVG 20010904//EN"
 "http://www.w3.org/TR/2001/REC-SVG-20010904/DTD/svg10.dtd">
<svg version="1.0" xmlns="http://www.w3.org/2000/svg"
 width="920.000000pt" height="920.000000pt" viewBox="0 0 920.000000 920.000000"
 preserveAspectRatio="xMidYMid meet">

<g transform="translate(0.000000,920.000000) scale(0.100000,-0.100000)"
fill="#000000" stroke="none">
<path d="M4125 8039 c-1380 -76 -2497 -432 -3020 -963 -158 -160 -257 -323
-307 -503 -29 -105 -32 -383 -5 -481 26 -97 74 -210 118 -280 21 -35 39 -69
39 -75 0 -7 -9 -25 -21 -42 -32 -47 -90 -165 -111 -225 -63 -180 -65 -409 -6
-590 21 -67 91 -212 127 -264 l20 -29 -28 -41 c-41 -60 -95 -171 -119 -246
-57 -177 -57 -395 0 -570 21 -67 91 -212 127 -264 l20 -29 -28 -41 c-72 -104
-131 -254 -152 -380 -16 -102 -7 -289 20 -388 94 -358 412 -677 921 -927 614
-302 1413 -481 2415 -541 226 -13 918 -5 1150 15 925 77 1654 254 2224 540
248 124 428 250 586 409 152 154 255 320 305 497 27 94 38 309 21 401 -24 128
-84 275 -152 374 l-28 41 20 29 c42 62 110 207 136 291 24 81 27 102 27 263 0
166 -1 179 -28 260 -31 93 -83 202 -127 266 l-28 41 20 29 c42 62 110 207 136
291 25 82 27 101 27 263 0 165 -2 180 -28 260 -31 93 -83 202 -127 266 l-28
41 26 38 c45 66 101 187 129 280 25 83 28 104 28 265 1 195 -12 260 -80 409
-79 172 -255 380 -437 515 -594 442 -1617 729 -2837 795 -197 11 -749 11 -945
0z m945 -769 c827 -46 1538 -203 2055 -454 188 -92 318 -178 418 -277 159
-158 160 -268 3 -424 -114 -113 -311 -234 -541 -332 l-100 -42 -16 -98 c-10
-54 -27 -125 -38 -157 -45 -128 -147 -275 -260 -377 l-71 -64 0 -112 c0 -72 4
-113 10 -113 20 0 335 89 435 123 176 60 361 136 526 218 89 44 163 78 166 75
3 -3 5 -27 5 -55 0 -73 -33 -134 -121 -221 -165 -164 -447 -313 -833 -442
l-188 -62 -2 -393 c-3 -345 -1 -393 12 -393 24 0 355 95 470 135 176 62 348
134 503 212 82 41 151 73 154 70 14 -15 4 -109 -17 -152 -97 -201 -532 -453
-1047 -605 l-71 -21 -5 -357 c-2 -198 -9 -374 -15 -394 -8 -32 -7 -38 6 -38
24 0 326 85 461 130 187 62 339 124 520 211 90 44 166 77 169 75 2 -3 4 -27 4
-55 0 -71 -33 -134 -116 -217 -206 -206 -611 -395 -1144 -533 -142 -36 -198
-56 -234 -80 -71 -48 -165 -89 -258 -112 -70 -18 -103 -21 -190 -16 -60 3
-131 13 -165 24 -55 17 -70 18 -180 6 -326 -32 -901 -43 -1250 -23 -977 57
-1818 274 -2300 594 -111 74 -233 194 -265 261 -22 45 -33 135 -18 150 3 3 77
-30 164 -73 638 -313 1464 -498 2459 -552 187 -10 686 -12 837 -3 l77 5 -19
37 c-59 117 -80 254 -80 536 l0 191 -310 -4 c-876 -12 -1701 110 -2325 345
-162 61 -399 178 -515 254 -115 76 -238 195 -270 264 -23 47 -33 136 -18 151
4 3 73 -28 155 -69 648 -328 1610 -533 2628 -562 l200 -5 -85 19 c-339 75
-575 352 -605 711 l-6 76 -129 12 c-620 59 -1286 236 -1690 449 -223 117 -400
261 -450 368 -23 47 -33 136 -18 151 4 3 69 -25 145 -64 449 -227 1043 -396
1708 -486 186 -26 434 -54 438 -50 1 1 1 42 -1 91 l-3 89 -87 43 c-276 137
-475 318 -587 533 l-42 81 -89 34 c-49 19 -155 52 -236 74 -512 135 -929 331
-1131 531 -160 159 -159 267 2 429 95 94 225 181 406 269 232 113 331 148 795
284 47 13 144 45 215 70 137 48 332 90 475 104 127 12 1307 13 1520 2z"/>
<path d="M3560 6884 c-413 -52 -741 -217 -842 -421 -61 -125 -40 -250 63 -367
110 -125 350 -243 596 -293 l81 -17 -5 -32 c-14 -88 43 -217 146 -326 117
-125 287 -225 515 -304 l105 -36 3 -487 3 -486 32 -66 c40 -81 102 -140 191
-182 59 -28 77 -32 152 -32 75 0 93 4 152 32 89 42 151 101 191 182 l32 66 3
432 3 433 29 0 c29 0 326 20 345 23 7 1 12 -392 15 -1213 l5 -1215 32 -60 c40
-77 112 -147 188 -182 52 -24 72 -28 155 -28 82 0 103 4 152 27 76 35 153 109
192 183 l31 60 3 1335 3 1335 71 45 c223 143 341 340 310 519 -31 180 -191
355 -440 480 -275 138 -587 208 -1007 227 l-150 7 -55 54 c-125 126 -305 214
-559 274 -201 47 -520 62 -741 33z"/>
</g>
</svg>
